<svg width="128" height="128" viewBox="0 0 487 492" fill="none" xmlns="http://www.w3.org/2000/svg">
    <path d="M298.866 349.862L252.161 303.158C250.709 301.705 248.139 301.705 246.687 303.158L236.562 313.283C235.049 314.796 235.049 317.247 236.562 318.759L270.404 352.598L236.564 386.443C235.051 387.955 235.051 390.407 236.564 391.919L246.689 402.045C247.415 402.771 248.401 403.181 249.427 403.181C250.452 403.181 251.439 402.771 252.165 402.045L298.866 355.342C300.378 353.828 300.378 351.374 298.866 349.862Z" fill="#25292E"/>
    <path d="M180.436 386.443L146.6 352.602L180.442 318.763C181.168 318.037 181.577 317.053 181.577 316.025C181.577 314.999 181.17 314.013 180.442 313.287L170.317 303.162C169.591 302.435 168.605 302.027 167.579 302.027C166.552 302.027 165.567 302.435 164.841 303.162L118.134 349.862C116.622 351.374 116.622 353.826 118.134 355.34L164.839 402.043C165.565 402.769 166.55 403.179 167.577 403.179C168.603 403.179 169.589 402.769 170.315 402.043L180.44 391.917C181.953 390.407 181.953 387.955 180.436 386.443Z" fill="#25292E"/>
    <path d="M235.059 287.446C234.567 286.543 233.738 285.873 232.755 285.583L224.546 283.16C222.497 282.552 220.34 283.728 219.736 285.778L181.629 414.827C181.339 415.813 181.451 416.872 181.941 417.772C182.431 418.676 183.262 419.345 184.245 419.637L192.454 422.059C192.82 422.168 193.19 422.22 193.552 422.22C195.223 422.22 196.766 421.128 197.264 419.441L235.371 290.391C235.661 289.405 235.551 288.346 235.059 287.446Z" fill="#25292E"/>
    <path d="M470.186 0H337.147C327.963 0 320.517 7.44576 320.517 16.6301C320.517 25.8144 327.963 33.2601 337.147 33.2601H430.038L258.87 204.43C252.377 210.923 252.377 221.453 258.87 227.948C262.116 231.194 266.372 232.818 270.628 232.818C274.884 232.818 279.141 231.194 282.386 227.947L453.556 56.7779V149.669C453.556 158.853 461.002 166.299 470.186 166.299C479.371 166.299 486.816 158.853 486.816 149.669V16.6301C486.816 7.44576 479.37 0 470.186 0Z" fill="#25292E"/>
    <path d="M395.636 212.727C382.783 212.727 372.363 223.147 372.363 236V445.455H46.545V119.636H256C268.853 119.636 279.273 109.216 279.273 96.3631C279.273 83.5101 268.853 73.0911 256 73.0911H23.273C10.42 73.0911 0 83.5111 0 96.3641V468.728C0 481.58 10.42 492 23.273 492H395.637C408.49 492 418.91 481.58 418.91 468.727V236C418.909 223.147 408.489 212.727 395.636 212.727Z" fill="#25292E"/>
</svg>
